<?xml version="1.0" encoding="UTF-8"?>
<!DOCTYPE svg PUBLIC "-//W3C//DTD SVG 1.1//EN" "http://www.w3.org/Graphics/SVG/1.1/DTD/svg11.dtd">
<!-- Creator: CorelDRAW -->
<svg xmlns="http://www.w3.org/2000/svg" xml:space="preserve" width="1.70666in" height="1.70666in" version="1.1" style="shape-rendering:geometricPrecision; text-rendering:geometricPrecision; image-rendering:optimizeQuality; fill-rule:evenodd; clip-rule:evenodd"
viewBox="0 0 1707 1707"
 xmlns:xlink="http://www.w3.org/1999/xlink">
 <defs>
  <style type="text/css">
   <![CDATA[
    .fil7 {fill:#FEFEFE}
    .fil0 {fill:#273941}
    .fil2 {fill:#3A4A52}
    .fil3 {fill:#4B5A61}
    .fil6 {fill:#74C3E8}
    .fil1 {fill:#89CFF0}
    .fil4 {fill:#FA3C48}
    .fil5 {fill:#FCD01A}
   ]]>
  </style>
 </defs>
 <g id="Layer_x0020_1">
  <metadata id="CorelCorpID_0Corel-Layer"/>
  <path class="fil0" d="M1586 1248c-7,0 -13,-3 -17,-8l-1410 0c-11,16 -37,8 -37,-12l0 -896c0,-65 53,-117 117,-117 416,0 833,0 1249,0 65,0 118,52 118,117l0 896c0,12 -9,20 -20,20z"/>
  <path class="fil1" d="M226 1228l0 -889c0,-11 9,-20 20,-20 411,0 824,0 1235,0 11,0 20,9 20,20l0 889c1,12 -1275,3 -1275,0z"/>
  <path class="fil2" d="M1617 1492l-1528 0c-49,0 -89,-40 -89,-89l0 -175c0,-11 9,-20 20,-20l1667 0c11,0 20,9 20,20l0 175c0,49 -40,89 -90,89z"/>
  <path class="fil3" d="M581 1208l566 0 0 142c0,11 -9,20 -20,20l-526 0c-11,0 -20,-9 -20,-20l0 -142z"/>
  <path class="fil4" d="M248 1370l-104 0c-26,0 -26,-40 0,-40l104 0c27,0 27,40 0,40z"/>
  <path class="fil5" d="M453 1370l-104 0c-26,0 -26,-40 0,-40l104 0c27,0 27,40 0,40z"/>
  <path class="fil5" d="M1378 1370l-104 0c-26,0 -26,-40 0,-40l104 0c27,0 27,40 0,40z"/>
  <path class="fil4" d="M1583 1370l-104 0c-26,0 -26,-40 0,-40l104 0c27,0 27,40 0,40z"/>
  <path class="fil6" d="M227 1208l1269 -883c-4,-4 -9,-6 -15,-6l-1235 0c-11,0 -20,9 -20,20l0 869 1 0z"/>
  <path class="fil7" d="M853 1074c-89,0 -162,-100 -162,-222 0,-122 73,-221 162,-221 90,0 163,99 163,221 0,122 -73,222 -163,222zm0 -403c-67,0 -122,82 -122,181 0,100 55,182 122,182 68,0 123,-82 123,-182 0,-99 -55,-181 -123,-181z"/>
  <path class="fil7" d="M973 763l-239 0c-26,0 -26,-40 0,-40l239 0c26,0 26,40 0,40z"/>
  <path class="fil7" d="M837 1072c-10,0 -19,-7 -20,-18l-13 -140c-5,-55 -41,-99 -89,-109 -26,-5 -18,-44 8,-39 65,13 114,71 121,145l13 139c1,12 -8,22 -20,22z"/>
  <path class="fil7" d="M869 1072c-11,0 -21,-10 -20,-22l13 -139c7,-74 56,-132 122,-145 26,-5 33,34 7,39 -48,10 -84,54 -89,109l-13 140c-1,11 -9,18 -20,18z"/>
  <path class="fil7" d="M918 693c-29,0 -16,-34 -16,-42 0,-63 -97,-64 -97,0 0,13 11,34 -10,41 -48,16 -45,-129 58,-129 98,0 107,130 65,130z"/>
  <path class="fil7" d="M788 651c-6,0 -12,-3 -16,-8 -12,-17 -55,-70 -55,-83 0,-32 -7,-69 20,-69 32,0 16,51 20,63l47 65c10,13 0,32 -16,32z"/>
  <path class="fil7" d="M919 651c-16,0 -26,-19 -17,-32l48 -65c4,-12 -12,-63 20,-63 27,0 20,37 20,69 0,13 -43,66 -55,83 -4,5 -10,8 -16,8z"/>
  <path class="fil7" d="M1052 785l-71 0c-26,0 -26,-40 0,-40l68 0c34,-14 50,-77 53,-99 3,-26 43,-20 40,6 -2,11 -17,110 -84,132 -2,0 -4,1 -6,1z"/>
  <path class="fil7" d="M1150 871l-154 0c-27,0 -27,-40 0,-40l154 0c26,0 26,40 0,40z"/>
  <path class="fil7" d="M1122 1076c-10,0 -19,-7 -20,-17 -3,-23 -19,-85 -53,-99l-68 0c-26,0 -26,-40 0,-40l77 1c67,22 82,121 84,132 1,12 -8,23 -20,23z"/>
  <path class="fil7" d="M725 785l-77 -1c-66,-22 -81,-121 -83,-132 -3,-26 36,-32 40,-6 3,23 19,85 53,99l67 0c27,0 27,40 0,40z"/>
  <path class="fil7" d="M711 871l-154 0c-27,0 -27,-40 0,-40l154 0c26,0 26,40 0,40z"/>
  <path class="fil7" d="M585 1076c-12,0 -22,-11 -20,-23 2,-11 17,-110 83,-132l77 -1c27,0 27,40 0,40l-67 0c-34,14 -50,76 -53,99 -2,10 -10,17 -20,17z"/>
 </g>
</svg>
