<svg xmlns="http://www.w3.org/2000/svg" width="69" height="69" viewBox="0 0 69 69">
  <g id="Grupo_30432" data-name="Grupo 30432" transform="translate(-395 -2347)">
    <path id="Trazado_29288" data-name="Trazado 29288" d="M34.5,0A34.5,34.5,0,1,1,0,34.5,34.5,34.5,0,0,1,34.5,0Z" transform="translate(395 2347)" fill="#ffe7c4"/>
    <g id="_010-market_analysis" data-name="010-market analysis" transform="translate(406 2357)">
      <g id="Grupo_29956" data-name="Grupo 29956" transform="translate(7.598 13.485)">
        <g id="Grupo_29946" data-name="Grupo 29946" transform="translate(0 12.851)">
          <g id="Grupo_29936" data-name="Grupo 29936" transform="translate(0 8.899)">
            <path id="Trazado_28708" data-name="Trazado 28708" d="M90.6,387.579H85.653V375.846a.375.375,0,0,1,.375-.375h4.192a.375.375,0,0,1,.375.375Z" transform="translate(-85.653 -375.471)" fill="#fd5426"/>
          </g>
          <g id="Grupo_29937" data-name="Grupo 29937" transform="translate(0 8.899)">
            <path id="Trazado_28709" data-name="Trazado 28709" d="M87.969,375.471h-1.94a.375.375,0,0,0-.375.375v11.733h1.94V375.846A.375.375,0,0,1,87.969,375.471Z" transform="translate(-85.653 -375.471)" fill="#ef4424"/>
          </g>
          <g id="Grupo_29938" data-name="Grupo 29938" transform="translate(7.538)">
            <path id="Trazado_28710" data-name="Trazado 28710" d="M170.921,301.651h-4.943V281.019a.375.375,0,0,1,.375-.375h4.192a.375.375,0,0,1,.375.375Z" transform="translate(-165.978 -280.644)" fill="#05e39c"/>
          </g>
          <g id="Grupo_29939" data-name="Grupo 29939" transform="translate(7.538)">
            <path id="Trazado_28711" data-name="Trazado 28711" d="M168.263,280.644h-1.91a.375.375,0,0,0-.375.375v20.632h1.91V281.019A.375.375,0,0,1,168.263,280.644Z" transform="translate(-165.978 -280.644)" fill="#0ed290"/>
          </g>
          <g id="Grupo_29940" data-name="Grupo 29940" transform="translate(15.076 4.201)">
            <path id="Trazado_28712" data-name="Trazado 28712" d="M251.245,342.221H246.3V325.79a.375.375,0,0,1,.375-.375h4.192a.375.375,0,0,1,.375.375Z" transform="translate(-246.302 -325.415)" fill="#fed402"/>
          </g>
          <g id="Grupo_29941" data-name="Grupo 29941" transform="translate(15.076 4.201)">
            <path id="Trazado_28713" data-name="Trazado 28713" d="M248.621,325.415h-1.942a.375.375,0,0,0-.375.375v16.43h1.942V325.79A.375.375,0,0,1,248.621,325.415Z" transform="translate(-246.303 -325.415)" fill="#fac600"/>
          </g>
          <g id="Grupo_29942" data-name="Grupo 29942" transform="translate(22.614 9.021)">
            <path id="Trazado_28714" data-name="Trazado 28714" d="M331.57,388.756h-4.943V377.145a.375.375,0,0,1,.375-.375h4.192a.375.375,0,0,1,.375.375Z" transform="translate(-326.627 -376.77)" fill="#fd5426"/>
          </g>
          <g id="Grupo_29943" data-name="Grupo 29943" transform="translate(22.614 9.021)">
            <path id="Trazado_28715" data-name="Trazado 28715" d="M328.945,376.77H327a.375.375,0,0,0-.375.375v11.611h1.943V377.145A.375.375,0,0,1,328.945,376.77Z" transform="translate(-326.627 -376.77)" fill="#ef4424"/>
          </g>
          <g id="Grupo_29944" data-name="Grupo 29944" transform="translate(30.152 0.154)">
            <path id="Trazado_28716" data-name="Trazado 28716" d="M411.895,303.136h-4.943V282.658a.375.375,0,0,1,.375-.375h4.192a.375.375,0,0,1,.375.375Z" transform="translate(-406.952 -282.283)" fill="#05e39c"/>
          </g>
          <g id="Grupo_29945" data-name="Grupo 29945" transform="translate(30.152 0.154)">
            <path id="Trazado_28717" data-name="Trazado 28717" d="M409.24,282.283h-1.912a.375.375,0,0,0-.375.375v20.478h1.912V282.658a.375.375,0,0,1,.375-.375Z" transform="translate(-406.952 -282.283)" fill="#0ed290"/>
          </g>
        </g>
        <g id="Grupo_29955" data-name="Grupo 29955">
          <g id="Grupo_29947" data-name="Grupo 29947" transform="translate(0 7.291)">
            <ellipse id="Elipse_1552" data-name="Elipse 1552" cx="2.471" cy="2.471" rx="2.471" ry="2.471" fill="#fd5426"/>
          </g>
          <g id="Grupo_29948" data-name="Grupo 29948" transform="translate(0 7.291)">
            <path id="Trazado_28718" data-name="Trazado 28718" d="M87.592,223.859a2.472,2.472,0,0,1,1.5-2.274,2.471,2.471,0,1,0,0,4.547A2.472,2.472,0,0,1,87.592,223.859Z" transform="translate(-85.652 -221.388)" fill="#ef4424"/>
          </g>
          <g id="Grupo_29949" data-name="Grupo 29949" transform="translate(7.538)">
            <ellipse id="Elipse_1553" data-name="Elipse 1553" cx="2.471" cy="2.471" rx="2.471" ry="2.471" fill="#05e39c"/>
          </g>
          <g id="Grupo_29950" data-name="Grupo 29950" transform="translate(7.538)">
            <path id="Trazado_28719" data-name="Trazado 28719" d="M167.888,146.168a2.472,2.472,0,0,1,1.517-2.28,2.471,2.471,0,1,0,0,4.56A2.472,2.472,0,0,1,167.888,146.168Z" transform="translate(-165.978 -143.697)" fill="#0ed290"/>
          </g>
          <g id="Grupo_29951" data-name="Grupo 29951" transform="translate(22.614 11.616)">
            <ellipse id="Elipse_1554" data-name="Elipse 1554" cx="2.471" cy="2.471" rx="2.471" ry="2.471" fill="#fd5426"/>
          </g>
          <g id="Grupo_29952" data-name="Grupo 29952" transform="translate(22.614 11.616)">
            <path id="Trazado_28720" data-name="Trazado 28720" d="M328.57,269.947a2.472,2.472,0,0,1,1.5-2.273,2.471,2.471,0,1,0,0,4.546A2.472,2.472,0,0,1,328.57,269.947Z" transform="translate(-326.627 -267.475)" fill="#ef4424"/>
          </g>
          <g id="Grupo_29953" data-name="Grupo 29953" transform="translate(30.152 3.831)">
            <ellipse id="Elipse_1555" data-name="Elipse 1555" cx="2.471" cy="2.471" rx="2.471" ry="2.471" fill="#05e39c"/>
          </g>
          <g id="Grupo_29954" data-name="Grupo 29954" transform="translate(30.152 3.831)">
            <path id="Trazado_28721" data-name="Trazado 28721" d="M408.864,186.989a2.472,2.472,0,0,1,1.515-2.28,2.471,2.471,0,1,0,0,4.559A2.472,2.472,0,0,1,408.864,186.989Z" transform="translate(-406.952 -184.518)" fill="#0ed290"/>
          </g>
        </g>
      </g>
      <g id="Grupo_29959" data-name="Grupo 29959" transform="translate(0.704 7.767)">
        <g id="Grupo_29957" data-name="Grupo 29957" transform="translate(0)">
          <path id="Trazado_28722" data-name="Trazado 28722" d="M24.729,88.316H12.639a.449.449,0,0,1-.448-.448V83.214a.449.449,0,0,1,.448-.448h12.09a.449.449,0,0,1,.448.448v4.653A.448.448,0,0,1,24.729,88.316Z" transform="translate(-12.191 -82.766)" fill="#fed402"/>
        </g>
        <g id="Grupo_29958" data-name="Grupo 29958" transform="translate(0 0)">
          <path id="Trazado_28723" data-name="Trazado 28723" d="M15.14,87.867V83.214a.448.448,0,0,1,.448-.448H12.639a.449.449,0,0,0-.448.448v4.653a.449.449,0,0,0,.448.448h2.949A.448.448,0,0,1,15.14,87.867Z" transform="translate(-12.191 -82.766)" fill="#fac600"/>
        </g>
      </g>
      <g id="Grupo_29963" data-name="Grupo 29963" transform="translate(34.002 0.704)">
        <g id="Grupo_29960" data-name="Grupo 29960">
          <path id="Trazado_28724" data-name="Trazado 28724" d="M379.482,13.731a6.231,6.231,0,1,0-7.555,6.088.56.56,0,0,1,.413.366l.911,1.553.912-1.554a.558.558,0,0,1,.41-.366,6.232,6.232,0,0,0,4.909-6.089Z" transform="translate(-367.021 -7.5)" fill="#fed402"/>
        </g>
        <g id="Grupo_29962" data-name="Grupo 29962" transform="translate(0 0.159)">
          <g id="Grupo_29961" data-name="Grupo 29961">
            <path id="Trazado_28725" data-name="Trazado 28725" d="M374.5,20.759a.56.56,0,0,0-.413-.366,6.225,6.225,0,0,1-2.228-11.2,6.23,6.23,0,0,0,.071,12.16.56.56,0,0,1,.413.366l.911,1.553.912-1.554a.558.558,0,0,1,.41-.366c.08-.017.159-.037.238-.057Z" transform="translate(-367.021 -9.193)" fill="#fac600"/>
          </g>
        </g>
      </g>
      <g id="Grupo_29964" data-name="Grupo 29964" transform="translate(0 0)">
        <path id="Trazado_28726" data-name="Trazado 28726" d="M92.558,294.151H90.791V280.356a.7.7,0,0,0-1.408,0v13.795H85.848V274.705h3.535v2.366a.7.7,0,0,0,1.408,0v-2.695a1.08,1.08,0,0,0-1.079-1.079H85.519a1.08,1.08,0,0,0-1.079,1.079v19.774H83.253V283.244a1.08,1.08,0,0,0-1.079-1.079H77.981a1.08,1.08,0,0,0-1.079,1.079v10.907H75.715V278.425a1.08,1.08,0,0,0-1.079-1.079H70.444a1.08,1.08,0,0,0-1.079,1.079v15.727H68.177V290.4a.7.7,0,0,0-1.408,0v3.754H63.234v-19.6h3.535v12.561a.7.7,0,1,0,1.408,0v-12.89a1.08,1.08,0,0,0-1.079-1.079H62.906a1.08,1.08,0,0,0-1.079,1.079v19.928H60.639V283.122a1.08,1.08,0,0,0-1.079-1.079H55.368a1.08,1.08,0,0,0-1.079,1.079v11.029H52.521a.7.7,0,0,0,0,1.408H92.558a.7.7,0,1,0,0-1.408Zm-33.327,0H55.7v-10.7h3.535Zm15.076,0H70.772v-15.4h3.535Zm7.538,0H78.31V283.572h3.535Z" transform="translate(-47.395 -247.512)" fill="#111e61"/>
        <path id="Trazado_28727" data-name="Trazado 28727" d="M15.76,84.16a6.5,6.5,0,0,0,1.38,4.01l-.644.623a3.173,3.173,0,1,0,.979,1.011l.643-.622a6.523,6.523,0,0,0,8.9-.5l7.478,5.762a3.175,3.175,0,1,0,5.54-.4L43.265,90.7a3.184,3.184,0,1,0-1.011-.98l-3.232,3.338a3.169,3.169,0,0,0-3.67.267l-7.476-5.76a6.532,6.532,0,0,0,.471-5.893.7.7,0,1,0-1.3.535,5.122,5.122,0,0,1-.293,4.492L25.18,85.492a3.175,3.175,0,1,0-5.6.314l-1.426,1.379a5.117,5.117,0,0,1-.61-4.961h.386a1.153,1.153,0,0,0,1.152-1.152v-.907a5.118,5.118,0,0,1,6.139-.219.7.7,0,0,0,.8-1.155,6.528,6.528,0,0,0-6.942-.323V76.419a1.154,1.154,0,0,0-1.152-1.152H5.844a1.153,1.153,0,0,0-1.152,1.152v4.653a1.154,1.154,0,0,0,1.152,1.152H16.056a6.494,6.494,0,0,0-.3,1.935Zm-1,9.058a1.768,1.768,0,1,1,1.768-1.768A1.77,1.77,0,0,1,14.761,93.218Zm30.152-7a1.768,1.768,0,1,1-1.768,1.768A1.77,1.77,0,0,1,44.913,86.223Zm-7.538,7.785a1.768,1.768,0,1,1-1.768,1.768A1.77,1.77,0,0,1,37.375,94.008ZM22.3,82.392a1.768,1.768,0,1,1-1.768,1.768A1.77,1.77,0,0,1,22.3,82.392Zm-1.735,4.425a3.167,3.167,0,0,0,3.757-.211l1.572,1.211a5.117,5.117,0,0,1-6.755.379Zm-14.464-6V76.675H17.679v4.142Z" transform="translate(-4.692 -68.204)" fill="#111e61"/>
        <path id="Trazado_28728" data-name="Trazado 28728" d="M33.163,104.837H31.469a.7.7,0,1,0,0,1.408h1.694a.7.7,0,1,0,0-1.408Z" transform="translate(-28.318 -94.999)" fill="#111e61"/>
        <path id="Trazado_28729" data-name="Trazado 28729" d="M77.147,104.837h-4.2a.7.7,0,1,0,0,1.408h4.2a.7.7,0,1,0,0-1.408Z" transform="translate(-65.903 -94.999)" fill="#111e61"/>
        <path id="Trazado_28730" data-name="Trazado 28730" d="M364.909,13.694q.012.026.027.051l.912,1.553a.7.7,0,0,0,1.214,0l.912-1.554c.01-.017.019-.033.027-.051a6.97,6.97,0,0,0,5.389-6.76,6.935,6.935,0,1,0-8.48,6.76Zm-3.974-7.049a5.565,5.565,0,0,1,5.257-5.232,5.527,5.527,0,0,1,5.789,5.521,5.553,5.553,0,0,1-4.354,5.4,1.269,1.269,0,0,0-.9.746l-.276.47-.276-.47a1.273,1.273,0,0,0-.9-.747A5.509,5.509,0,0,1,360.935,6.645Z" transform="translate(-326.222 0)" fill="#111e61"/>
        <path id="Trazado_28731" data-name="Trazado 28731" d="M406.478,29.941h1.432a.592.592,0,0,1,0,1.184h-2.523a.7.7,0,1,0,0,1.408h1.1v.626a.7.7,0,0,0,1.408,0v-.626h.012a2,2,0,0,0,0-4h-1.432a.592.592,0,1,1,0-1.184H409a.7.7,0,1,0,0-1.408h-1.1v-.626a.7.7,0,0,0-1.408,0v.626h-.012a2,2,0,1,0,0,4Z" transform="translate(-366.961 -22.302)" fill="#111e61"/>
      </g>
    </g>
  </g>
</svg>
