<svg xmlns="http://www.w3.org/2000/svg" width="69" height="69" viewBox="0 0 69 69">
  <g id="Grupo_30434" data-name="Grupo 30434" transform="translate(-395 -2119)">
    <circle id="Elipse_1613" data-name="Elipse 1613" cx="34.5" cy="34.5" r="34.5" transform="translate(395 2119)" fill="#ffe7c4"/>
    <g id="_003-data_gathering" data-name="003-data gathering" transform="translate(406.789 2129.477)">
      <g id="Grupo_29778" data-name="Grupo 29778" transform="translate(0.704 12.84)">
        <g id="Grupo_29756" data-name="Grupo 29756" transform="translate(16.529 26.357)">
          <path id="Trazado_28512" data-name="Trazado 28512" d="M197.634,417.7h10.954v5.178H197.634Z" transform="translate(-197.634 -417.7)" fill="#678d98"/>
        </g>
        <g id="Grupo_29757" data-name="Grupo 29757" transform="translate(16.529 26.357)">
          <path id="Trazado_28513" data-name="Trazado 28513" d="M197.634,417.7h3.907v5.178h-3.907Z" transform="translate(-197.634 -417.7)" fill="#537983"/>
        </g>
        <g id="Grupo_29758" data-name="Grupo 29758" transform="translate(10.666 31.441)">
          <path id="Trazado_28514" data-name="Trazado 28514" d="M135.16,474v-.716a1.408,1.408,0,0,1,1.408-1.408h19.865a1.408,1.408,0,0,1,1.408,1.408V474a.938.938,0,0,1-.938.938H136.1A.938.938,0,0,1,135.16,474Z" transform="translate(-135.16 -471.873)" fill="#7ca1b1"/>
        </g>
        <g id="Grupo_29759" data-name="Grupo 29759" transform="translate(10.666 31.441)">
          <path id="Trazado_28515" data-name="Trazado 28515" d="M139.086,474v-.716a1.408,1.408,0,0,1,1.408-1.408h-3.926a1.408,1.408,0,0,0-1.408,1.408V474a.938.938,0,0,0,.938.938h3.926A.938.938,0,0,1,139.086,474Z" transform="translate(-135.16 -471.873)" fill="#678d98"/>
        </g>
        <g id="Grupo_29760" data-name="Grupo 29760" transform="translate(0.914 22.748)">
          <path id="Trazado_28516" data-name="Trazado 28516" d="M31.237,379.236V382a.938.938,0,0,0,.938.938H72.483a.938.938,0,0,0,.938-.938v-2.765H31.237Z" transform="translate(-31.237 -379.236)" fill="#7ca1b1"/>
        </g>
        <g id="Grupo_29762" data-name="Grupo 29762" transform="translate(0.914 22.748)">
          <g id="Grupo_29761" data-name="Grupo 29761">
            <path id="Trazado_28517" data-name="Trazado 28517" d="M35.156,382v-2.765H31.237V382a.938.938,0,0,0,.938.938h3.919A.938.938,0,0,1,35.156,382Z" transform="translate(-31.237 -379.237)" fill="#678d98"/>
          </g>
        </g>
        <path id="Trazado_28518" data-name="Trazado 28518" d="M65.349,146.333l1.676-1.676a.281.281,0,0,1,.2-.082h6.2v-6.351a1.394,1.394,0,0,0-1.394-1.394h-13.6v2.861a.282.282,0,0,1-.282.282H46.511a.282.282,0,0,1-.282-.282V136.83h-13.6a1.394,1.394,0,0,0-1.394,1.394V145.5l.844-.845a.281.281,0,0,1,.2-.082h6.83a.281.281,0,0,1,.282.282v10.8a.282.282,0,0,1-.282.282H31.237v3.644H73.422v-3.644H65.548a.282.282,0,0,1-.282-.282v-9.12A.282.282,0,0,1,65.349,146.333Z" transform="translate(-30.323 -136.83)" fill="#dff6fd"/>
        <g id="Grupo_29763" data-name="Grupo 29763" transform="translate(0.914)">
          <path id="Trazado_28519" data-name="Trazado 28519" d="M32.082,144.657a.281.281,0,0,1,.2-.082h2.876v-6.351a1.394,1.394,0,0,1,1.394-1.394H32.631a1.394,1.394,0,0,0-1.394,1.394V145.5Z" transform="translate(-31.237 -136.83)" fill="#c8effe"/>
          <path id="Trazado_28520" data-name="Trazado 28520" d="M31.237,340.4h3.919v3.644H31.237Z" transform="translate(-31.237 -321.298)" fill="#c8effe"/>
        </g>
        <g id="Grupo_29772" data-name="Grupo 29772" transform="translate(0 7.745)">
          <g id="Grupo_29767" data-name="Grupo 29767" transform="translate(34.943)">
            <g id="Grupo_29765" data-name="Grupo 29765">
              <g id="Grupo_29764" data-name="Grupo 29764">
                <path id="Trazado_28521" data-name="Trazado 28521" d="M395.617,219.443l-1.676,1.676a.281.281,0,0,0-.082.2v9.12a.282.282,0,0,0,.282.282h8.506a.281.281,0,0,0,.282-.282v-10.8a.281.281,0,0,0-.282-.282h-6.83A.281.281,0,0,0,395.617,219.443Z" transform="translate(-393.859 -219.361)" fill="#62dbfb"/>
              </g>
            </g>
            <g id="Grupo_29766" data-name="Grupo 29766" transform="translate(0 0)">
              <path id="Trazado_28522" data-name="Trazado 28522" d="M396.875,230.439v-9.12a.281.281,0,0,1,.083-.2l1.676-1.676a.282.282,0,0,1,.2-.082h-3.016a.281.281,0,0,0-.2.082l-1.676,1.676a.281.281,0,0,0-.082.2v9.12a.282.282,0,0,0,.282.282h3.016A.282.282,0,0,1,396.875,230.439Z" transform="translate(-393.859 -219.362)" fill="#01d0fb"/>
            </g>
          </g>
          <g id="Grupo_29771" data-name="Grupo 29771">
            <g id="Grupo_29769" data-name="Grupo 29769">
              <g id="Grupo_29768" data-name="Grupo 29768">
                <path id="Trazado_28523" data-name="Trazado 28523" d="M23.258,219.443l-1.676,1.676a.281.281,0,0,0-.082.2v9.12a.282.282,0,0,0,.282.282h8.506a.282.282,0,0,0,.282-.282v-10.8a.282.282,0,0,0-.282-.282h-6.83A.281.281,0,0,0,23.258,219.443Z" transform="translate(-21.5 -219.361)" fill="#6cf5c2"/>
              </g>
            </g>
            <g id="Grupo_29770" data-name="Grupo 29770" transform="translate(0 0)">
              <path id="Trazado_28524" data-name="Trazado 28524" d="M24.456,230.439v-9.12a.281.281,0,0,1,.082-.2l1.676-1.676a.282.282,0,0,1,.2-.082H23.457a.281.281,0,0,0-.2.082l-1.676,1.676a.281.281,0,0,0-.082.2v9.12a.282.282,0,0,0,.282.282h2.956A.282.282,0,0,1,24.456,230.439Z" transform="translate(-21.5 -219.362)" fill="#05e39c"/>
            </g>
          </g>
        </g>
        <g id="Grupo_29777" data-name="Grupo 29777" transform="translate(14.123 7.587)">
          <g id="Grupo_29773" data-name="Grupo 29773">
            <path id="Trazado_28525" data-name="Trazado 28525" d="M177.238,217.677h-4.863a.375.375,0,0,0-.375.375v1.976h6.475l-.891-2.121A.375.375,0,0,0,177.238,217.677Z" transform="translate(-172 -217.677)" fill="#fed402"/>
          </g>
          <g id="Grupo_29774" data-name="Grupo 29774">
            <path id="Trazado_28526" data-name="Trazado 28526" d="M175.191,217.677h-2.815a.375.375,0,0,0-.375.375v1.976h2.815v-1.976A.375.375,0,0,1,175.191,217.677Z" transform="translate(-172 -217.677)" fill="#fac600"/>
          </g>
          <g id="Grupo_29775" data-name="Grupo 29775" transform="translate(0 2.351)">
            <path id="Trazado_28527" data-name="Trazado 28527" d="M187.484,252.549h-15.2a.282.282,0,0,1-.282-.282V242.73h15.484a.282.282,0,0,1,.282.282v9.256A.281.281,0,0,1,187.484,252.549Z" transform="translate(-172 -242.73)" fill="#fed402"/>
          </g>
          <g id="Grupo_29776" data-name="Grupo 29776" transform="translate(0 2.351)">
            <path id="Trazado_28528" data-name="Trazado 28528" d="M174.815,252.267V242.73H172v9.537a.282.282,0,0,0,.282.282H175.1A.282.282,0,0,1,174.815,252.267Z" transform="translate(-172 -242.73)" fill="#fac600"/>
          </g>
        </g>
      </g>
      <g id="Grupo_29781" data-name="Grupo 29781" transform="translate(16.61 0.704)">
        <g id="Grupo_29779" data-name="Grupo 29779" transform="translate(0 0)">
          <path id="Trazado_28529" data-name="Trazado 28529" d="M193.394,7.582l-2.311,2.311a.281.281,0,0,0-.082.2V22.5a.282.282,0,0,0,.282.282h11.637a.282.282,0,0,0,.282-.282V7.782a.282.282,0,0,0-.282-.282h-9.325a.282.282,0,0,0-.2.082Z" transform="translate(-191 -7.5)" fill="#fee97d"/>
        </g>
        <g id="Grupo_29780" data-name="Grupo 29780">
          <path id="Trazado_28530" data-name="Trazado 28530" d="M193.815,22.5V10.092a.282.282,0,0,1,.082-.2l2.311-2.311a.282.282,0,0,1,.2-.082h-2.815a.281.281,0,0,0-.2.082l-2.311,2.311a.282.282,0,0,0-.082.2V22.5a.282.282,0,0,0,.282.282H194.1A.282.282,0,0,1,193.815,22.5Z" transform="translate(-191 -7.499)" fill="#fedf30"/>
        </g>
      </g>
      <g id="Grupo_29782" data-name="Grupo 29782" transform="translate(0 0)">
        <path id="Trazado_28531" data-name="Trazado 28531" d="M58.717,25.1a.7.7,0,0,0,.7-.7V20.867a.986.986,0,0,0-.914-.982V14.235a2.1,2.1,0,0,0-2.1-2.1H48.928V7.729a.7.7,0,0,0-1.408,0v4.408H43.514V9.947a.7.7,0,0,0-1.408,0V15.28H31.315V3.471l2.064-2.064h8.728V6.663a.7.7,0,0,0,1.408,0V.985A.986.986,0,0,0,42.529,0H33.2a.979.979,0,0,0-.7.289L30.2,2.6a.979.979,0,0,0-.289.7v8.84H26.124V7.729a.7.7,0,0,0-1.408,0v4.408h-7.7a2.1,2.1,0,0,0-2.1,2.1v6.986l-.625.625a.979.979,0,0,0-.289.7v9.12a.986.986,0,0,0,.914.982v5.709A1.644,1.644,0,0,0,16.557,40H30.53v3.582H26.779a2.114,2.114,0,0,0-2.111,2.111V46.4a1.644,1.644,0,0,0,1.642,1.642h20.8A1.644,1.644,0,0,0,48.755,46.4v-.716a2.114,2.114,0,0,0-2.111-2.111H42.892V40H56.865a1.644,1.644,0,0,0,1.642-1.642V32.644a.986.986,0,0,0,.914-.982V27.683a.7.7,0,0,0-1.408,0V31.24H50.352V22.718l1.428-1.428h6.233V24.4a.7.7,0,0,0,.7.7ZM36.711,30.2a.7.7,0,0,0,.5-.206l1.66-1.66a.7.7,0,1,0-1-1l-.458.458V23.482H43.89v8.411H29.532V23.482h6.475v4.311l-.458-.458a.7.7,0,0,0-1,1l1.66,1.66a.7.7,0,0,0,.5.206Zm-7.179-8.121v-.943h4.316l.4.943Zm-14.123.643,1.428-1.428H23.07V31.24H15.409ZM46.643,44.985a.7.7,0,0,1,.7.7V46.4a.235.235,0,0,1-.235.235h-20.8a.235.235,0,0,1-.235-.235v-.716a.7.7,0,0,1,.7-.7H36.9a.7.7,0,1,0,0-1.408H31.937V40h9.547v3.582h-1.3a.7.7,0,1,0,0,1.408ZM57.1,38.353a.235.235,0,0,1-.235.235H16.557a.235.235,0,0,1-.235-.235V36.292H57.1v2.061Zm0-18.472H51.605a.979.979,0,0,0-.7.289l-1.675,1.676a.979.979,0,0,0-.289.7v9.12a.986.986,0,0,0,.985.985H57.1v2.237H16.322V32.648h7.17a.986.986,0,0,0,.985-.985v-10.8a.986.986,0,0,0-.985-.985h-6.83a.985.985,0,0,0-.34.061V14.235a.691.691,0,0,1,.69-.69h7.7v3.106l-.458-.458a.7.7,0,1,0-1,1l1.66,1.66a.7.7,0,0,0,1,0l1.66-1.66a.7.7,0,1,0-1-1l-.458.458V13.544h3.783V15.7a.986.986,0,0,0,.985.985h5.114v5.387h-.236l-.71-1.69a1.077,1.077,0,0,0-1-.661H29.2A1.08,1.08,0,0,0,28.124,20.8V32.316a.986.986,0,0,0,.985.985h15.2a.986.986,0,0,0,.985-.985V23.06a.986.986,0,0,0-.985-.985h-6.9V16.687h5.114a.986.986,0,0,0,.985-.985V13.544H47.52v3.106l-.458-.458a.7.7,0,0,0-1,1l1.66,1.66a.7.7,0,0,0,1,0l1.66-1.66a.7.7,0,1,0-1-1l-.458.458V13.544h7.481a.691.691,0,0,1,.69.69v5.647Z" transform="translate(-14.001 0)" fill="#111e61"/>
        <path id="Trazado_28532" data-name="Trazado 28532" d="M418.947,239.82h-3.8a.7.7,0,0,0,0,1.408h3.8a.7.7,0,1,0,0-1.408Z" transform="translate(-376.867 -217.315)" fill="#111e61"/>
        <path id="Trazado_28533" data-name="Trazado 28533" d="M418.947,261.431h-3.8a.7.7,0,1,0,0,1.408h3.8a.7.7,0,1,0,0-1.408Z" transform="translate(-376.867 -236.898)" fill="#111e61"/>
        <path id="Trazado_28534" data-name="Trazado 28534" d="M419.651,283.939a.7.7,0,0,0-.7-.7h-3.8a.7.7,0,1,0,0,1.408h3.8A.7.7,0,0,0,419.651,283.939Z" transform="translate(-376.867 -256.656)" fill="#111e61"/>
        <path id="Trazado_28535" data-name="Trazado 28535" d="M415.15,304.943a.7.7,0,0,0,0,1.408h1.7a.7.7,0,1,0,0-1.408Z" transform="translate(-376.867 -276.327)" fill="#111e61"/>
        <path id="Trazado_28536" data-name="Trazado 28536" d="M46.588,239.82h-3.8a.7.7,0,0,0,0,1.408h3.8a.7.7,0,0,0,0-1.408Z" transform="translate(-39.451 -217.315)" fill="#111e61"/>
        <path id="Trazado_28537" data-name="Trazado 28537" d="M46.588,261.431h-3.8a.7.7,0,1,0,0,1.408h3.8a.7.7,0,0,0,0-1.408Z" transform="translate(-39.451 -236.898)" fill="#111e61"/>
        <path id="Trazado_28538" data-name="Trazado 28538" d="M46.588,283.235h-3.8a.7.7,0,1,0,0,1.408h3.8a.7.7,0,0,0,0-1.408Z" transform="translate(-39.451 -256.656)" fill="#111e61"/>
        <path id="Trazado_28539" data-name="Trazado 28539" d="M44.494,304.943h-1.7a.7.7,0,1,0,0,1.408h1.7a.7.7,0,1,0,0-1.408Z" transform="translate(-39.452 -276.327)" fill="#111e61"/>
        <path id="Trazado_28540" data-name="Trazado 28540" d="M218.336,27.531h-.188V24.2a.7.7,0,0,0-1.408,0v3.327h-.375V25.413a.7.7,0,0,0-1.408,0v2.118h-.375V24.687a.7.7,0,0,0-1.408,0v2.843H212.8V26.139a.7.7,0,1,0-1.408,0v1.392H211.2a.7.7,0,0,0,0,1.408h7.132a.7.7,0,1,0,0-1.408Z" transform="translate(-192.06 -21.295)" fill="#111e61"/>
        <path id="Trazado_28541" data-name="Trazado 28541" d="M211.591,91.5H211.2a.7.7,0,0,0,0,1.408h.388a.7.7,0,1,0,0-1.408Z" transform="translate(-192.06 -82.913)" fill="#111e61"/>
        <path id="Trazado_28542" data-name="Trazado 28542" d="M211.591,113H211.2a.7.7,0,0,0,0,1.408h.388a.7.7,0,1,0,0-1.408Z" transform="translate(-192.06 -102.396)" fill="#111e61"/>
        <path id="Trazado_28543" data-name="Trazado 28543" d="M211.591,134.5H211.2a.7.7,0,0,0,0,1.408h.388a.7.7,0,1,0,0-1.408Z" transform="translate(-192.06 -121.878)" fill="#111e61"/>
        <path id="Trazado_28544" data-name="Trazado 28544" d="M238.547,91.5h-5.039a.7.7,0,1,0,0,1.408h5.039a.7.7,0,1,0,0-1.408Z" transform="translate(-212.271 -82.913)" fill="#111e61"/>
        <path id="Trazado_28545" data-name="Trazado 28545" d="M238.547,113h-5.039a.7.7,0,1,0,0,1.408h5.039a.7.7,0,1,0,0-1.408Z" transform="translate(-212.271 -102.396)" fill="#111e61"/>
        <path id="Trazado_28546" data-name="Trazado 28546" d="M238.547,134.5h-5.039a.7.7,0,1,0,0,1.408h5.039a.7.7,0,1,0,0-1.408Z" transform="translate(-212.271 -121.878)" fill="#111e61"/>
      </g>
    </g>
  </g>
</svg>
