<svg xmlns="http://www.w3.org/2000/svg" width="69" height="69" viewBox="0 0 69 69">
  <g id="Grupo_30433" data-name="Grupo 30433" transform="translate(-395 -2233)">
    <path id="Trazado_29287" data-name="Trazado 29287" d="M34.5,0A34.5,34.5,0,1,1,0,34.5,34.5,34.5,0,0,1,34.5,0Z" transform="translate(395 2233)" fill="#ffe7c4"/>
    <g id="_009-data_research" data-name="009-data research" transform="translate(405.477 2246)">
      <path id="Trazado_28673" data-name="Trazado 28673" d="M7.5,89.027v30.38a1.07,1.07,0,0,0,1.07,1.07H43.39l-2.952-2.952a.938.938,0,0,1,0-1.327l2.324-2.324a.938.938,0,0,1,1.327,0l6.6,6.6H53.07a1.07,1.07,0,0,0,1.07-1.07V89.027Z" transform="translate(-6.796 -83.509)" fill="#fdf6ec"/>
      <path id="Trazado_28674" data-name="Trazado 28674" d="M11.3,119.407V104.944h-.123a.257.257,0,0,1-.257-.257V100.51a.257.257,0,0,1,.257-.257H11.3V97.364h-.123a.257.257,0,0,1-.257-.257V92.929a.257.257,0,0,1,.257-.257H11.3V89.027H7.5v30.38a1.07,1.07,0,0,0,1.07,1.07h3.8A1.07,1.07,0,0,1,11.3,119.407Z" transform="translate(-6.796 -83.509)" fill="#fef1da"/>
      <g id="Grupo_29911" data-name="Grupo 29911" transform="translate(13.551 10.331)">
        <path id="Trazado_28675" data-name="Trazado 28675" d="M330.985,324.775l-3.14-3.14a10.7,10.7,0,0,1-2.14,2.139l3.14,3.14Z" transform="translate(-308.691 -304.62)" fill="#a8d3d8"/>
        <g id="Grupo_29907" data-name="Grupo 29907" transform="translate(19.817 19.758)">
          <path id="Trazado_28676" data-name="Trazado 28676" d="M366.873,359.846l-2.324,2.324a.939.939,0,0,1-1.327,0l-7.38-7.38a.938.938,0,0,1,0-1.327l2.324-2.324a.938.938,0,0,1,1.327,0l7.38,7.38A.938.938,0,0,1,366.873,359.846Z" transform="translate(-355.566 -350.864)" fill="#678d98"/>
        </g>
        <g id="Grupo_29908" data-name="Grupo 29908" transform="translate(19.817 19.758)">
          <path id="Trazado_28677" data-name="Trazado 28677" d="M358.94,354.792a.938.938,0,0,1,0-1.327l1.438-1.438-.886-.886a.938.938,0,0,0-1.327,0l-2.324,2.324a.938.938,0,0,0,0,1.327l7.38,7.38a.938.938,0,0,0,1.327,0l.886-.886Z" transform="translate(-355.566 -350.865)" fill="#537983"/>
        </g>
        <path id="Trazado_28678" data-name="Trazado 28678" d="M165.08,153.716v-6.265a10.639,10.639,0,1,0,.161,6.518A.281.281,0,0,1,165.08,153.716Z" transform="translate(-144.396 -140.322)" fill="#678d98"/>
        <g id="Grupo_29909" data-name="Grupo 29909" transform="translate(0 0)">
          <path id="Trazado_28679" data-name="Trazado 28679" d="M146.636,150.961a10.64,10.64,0,0,1,9.519-10.58,10.772,10.772,0,0,0-1.12-.059,10.639,10.639,0,1,0,1.12,21.219A10.64,10.64,0,0,1,146.636,150.961Z" transform="translate(-144.396 -140.322)" fill="#537983"/>
        </g>
        <path id="Trazado_28680" data-name="Trazado 28680" d="M191.03,185.492a.281.281,0,0,1-.282-.282v-6.7a.282.282,0,0,1,.282-.282h1.536a7.375,7.375,0,1,0,.682,7.267Z" transform="translate(-175.889 -171.816)" fill="#c8effe"/>
        <g id="Grupo_29910" data-name="Grupo 29910" transform="translate(3.262 3.262)">
          <path id="Trazado_28681" data-name="Trazado 28681" d="M182.12,182.455a7.39,7.39,0,0,1,5.893-7.227,7.377,7.377,0,1,0,0,14.454A7.39,7.39,0,0,1,182.12,182.455Z" transform="translate(-179.152 -175.078)" fill="#99e6fc"/>
        </g>
      </g>
      <g id="Grupo_29928" data-name="Grupo 29928" transform="translate(22.585 10.331)">
        <g id="Grupo_29914" data-name="Grupo 29914" transform="translate(0 9.724)">
          <g id="Grupo_29913" data-name="Grupo 29913">
            <g id="Grupo_29912" data-name="Grupo 29912">
              <path id="Trazado_28682" data-name="Trazado 28682" d="M243.593,247.9h-2.646a.282.282,0,0,1-.282-.282v-3.388a.282.282,0,0,1,.282-.282h2.646a.282.282,0,0,1,.282.282v3.388A.281.281,0,0,1,243.593,247.9Z" transform="translate(-240.665 -243.947)" fill="#fd5426"/>
            </g>
          </g>
        </g>
        <g id="Grupo_29915" data-name="Grupo 29915" transform="translate(0 9.724)">
          <path id="Trazado_28683" data-name="Trazado 28683" d="M242.2,247.616v-3.388a.282.282,0,0,1,.282-.282h-1.533a.282.282,0,0,0-.282.282v3.388a.282.282,0,0,0,.282.282h1.533A.282.282,0,0,1,242.2,247.616Z" transform="translate(-240.665 -243.947)" fill="#ef4424"/>
        </g>
        <g id="Grupo_29918" data-name="Grupo 29918" transform="translate(5.825 6.408)">
          <g id="Grupo_29917" data-name="Grupo 29917">
            <g id="Grupo_29916" data-name="Grupo 29916">
              <path id="Trazado_28684" data-name="Trazado 28684" d="M305.664,215.877h-2.646a.282.282,0,0,1-.282-.282v-6.7a.282.282,0,0,1,.282-.282h2.646a.282.282,0,0,1,.282.282v6.7A.282.282,0,0,1,305.664,215.877Z" transform="translate(-302.736 -208.61)" fill="#fed402"/>
            </g>
          </g>
        </g>
        <g id="Grupo_29919" data-name="Grupo 29919" transform="translate(5.825 6.408)">
          <path id="Trazado_28685" data-name="Trazado 28685" d="M304.262,215.6v-6.7a.281.281,0,0,1,.281-.282h-1.526a.282.282,0,0,0-.282.282v6.7a.282.282,0,0,0,.282.282h1.526A.281.281,0,0,1,304.262,215.6Z" transform="translate(-302.736 -208.61)" fill="#fac600"/>
        </g>
        <g id="Grupo_29922" data-name="Grupo 29922" transform="translate(11.65)">
          <g id="Grupo_29921" data-name="Grupo 29921">
            <g id="Grupo_29920" data-name="Grupo 29920">
              <path id="Trazado_28686" data-name="Trazado 28686" d="M367.736,154H365.09a.281.281,0,0,1-.282-.282V140.6a.282.282,0,0,1,.282-.282h2.646a.282.282,0,0,1,.282.282v13.112A.281.281,0,0,1,367.736,154Z" transform="translate(-364.808 -140.323)" fill="#05e39c"/>
            </g>
          </g>
        </g>
        <g id="Grupo_29923" data-name="Grupo 29923" transform="translate(11.65)">
          <path id="Trazado_28687" data-name="Trazado 28687" d="M366.4,153.716V140.6a.281.281,0,0,1,.281-.282H365.09a.282.282,0,0,0-.282.282v13.112a.281.281,0,0,0,.282.282h1.595A.281.281,0,0,1,366.4,153.716Z" transform="translate(-364.808 -140.323)" fill="#0ed290"/>
        </g>
        <g id="Grupo_29926" data-name="Grupo 29926" transform="translate(17.475 3.209)">
          <g id="Grupo_29925" data-name="Grupo 29925">
            <g id="Grupo_29924" data-name="Grupo 29924">
              <path id="Trazado_28688" data-name="Trazado 28688" d="M429.807,184.986h-2.646a.282.282,0,0,1-.282-.282v-9.9a.282.282,0,0,1,.282-.282h2.646a.282.282,0,0,1,.282.282v9.9A.282.282,0,0,1,429.807,184.986Z" transform="translate(-426.879 -174.52)" fill="#01d0fb"/>
            </g>
          </g>
        </g>
        <g id="Grupo_29927" data-name="Grupo 29927" transform="translate(17.475 3.209)">
          <path id="Trazado_28689" data-name="Trazado 28689" d="M428.467,184.7v-9.9a.281.281,0,0,1,.282-.282h-1.588a.282.282,0,0,0-.282.282v9.9a.282.282,0,0,0,.282.282h1.588A.281.281,0,0,1,428.467,184.7Z" transform="translate(-426.879 -174.52)" fill="#01c0fa"/>
        </g>
      </g>
      <g id="Grupo_29929" data-name="Grupo 29929" transform="translate(4.124 9.162)">
        <path id="Trazado_28690" data-name="Trazado 28690" d="M48.38,132.555H44.2a.257.257,0,0,1-.257-.257V128.12a.257.257,0,0,1,.257-.257H48.38a.257.257,0,0,1,.257.257V132.3A.257.257,0,0,1,48.38,132.555Z" transform="translate(-43.945 -127.863)" fill="#01d0fb"/>
      </g>
      <g id="Grupo_29930" data-name="Grupo 29930" transform="translate(4.124 9.162)">
        <path id="Trazado_28691" data-name="Trazado 28691" d="M46.2,132.3V128.12a.257.257,0,0,1,.257-.257H44.2a.257.257,0,0,0-.257.257V132.3a.257.257,0,0,0,.257.257H46.46A.257.257,0,0,1,46.2,132.3Z" transform="translate(-43.945 -127.863)" fill="#01c0fa"/>
      </g>
      <g id="Grupo_29931" data-name="Grupo 29931" transform="translate(4.124 16.743)">
        <path id="Trazado_28692" data-name="Trazado 28692" d="M48.38,213.339H44.2a.257.257,0,0,1-.257-.257V208.9a.257.257,0,0,1,.257-.257H48.38a.257.257,0,0,1,.257.257v4.178A.257.257,0,0,1,48.38,213.339Z" transform="translate(-43.945 -208.647)" fill="#05e39c"/>
      </g>
      <g id="Grupo_29932" data-name="Grupo 29932" transform="translate(4.124 16.743)">
        <path id="Trazado_28693" data-name="Trazado 28693" d="M46.2,213.082V208.9a.257.257,0,0,1,.257-.257H44.2a.257.257,0,0,0-.257.257v4.178a.257.257,0,0,0,.257.257H46.46A.257.257,0,0,1,46.2,213.082Z" transform="translate(-43.945 -208.647)" fill="#0ed290"/>
      </g>
      <g id="Grupo_29933" data-name="Grupo 29933" transform="translate(0.704 0.704)">
        <path id="Trazado_28694" data-name="Trazado 28694" d="M53.07,37.731H8.57A1.07,1.07,0,0,0,7.5,38.8v3.744H54.14V38.8a1.07,1.07,0,0,0-1.07-1.07Z" transform="translate(-7.5 -37.731)" fill="#7ca1b1"/>
      </g>
      <g id="Grupo_29934" data-name="Grupo 29934" transform="translate(0.704 0.704)">
        <path id="Trazado_28695" data-name="Trazado 28695" d="M8.57,37.731A1.07,1.07,0,0,0,7.5,38.8v3.744h7.7V37.731Z" transform="translate(-7.5 -37.731)" fill="#678d98"/>
      </g>
      <path id="Trazado_28696" data-name="Trazado 28696" d="M12.37,37.731H8.57A1.07,1.07,0,0,0,7.5,38.8v3.744h3.8V38.8a1.07,1.07,0,0,1,1.07-1.07Z" transform="translate(-6.796 -37.027)" fill="#537983"/>
      <g id="Grupo_29935" data-name="Grupo 29935" transform="translate(0 0)">
        <path id="Trazado_28697" data-name="Trazado 28697" d="M43.676,288.99H37.148a.7.7,0,1,0,0,1.408h6.528a.7.7,0,0,0,0-1.408Z" transform="translate(-33.024 -264.708)" fill="#111e61"/>
        <path id="Trazado_28698" data-name="Trazado 28698" d="M43.676,319.768H37.148a.7.7,0,0,0,0,1.408h6.528a.7.7,0,0,0,0-1.408Z" transform="translate(-33.024 -292.597)" fill="#111e61"/>
        <path id="Trazado_28699" data-name="Trazado 28699" d="M44.38,351.249a.7.7,0,0,0-.7-.7H37.148a.7.7,0,1,0,0,1.408h6.528A.7.7,0,0,0,44.38,351.249Z" transform="translate(-33.024 -320.486)" fill="#111e61"/>
        <path id="Trazado_28700" data-name="Trazado 28700" d="M37.148,381.323a.7.7,0,1,0,0,1.408H41a.7.7,0,1,0,0-1.408Z" transform="translate(-33.024 -348.376)" fill="#111e61"/>
        <path id="Trazado_28701" data-name="Trazado 28701" d="M37.406,126.462h4.178a.962.962,0,0,0,.961-.961v-4.178a.962.962,0,0,0-.961-.961H37.406a.962.962,0,0,0-.961.961V125.5A.962.962,0,0,0,37.406,126.462Zm.447-4.692h3.285v3.284H37.853Z" transform="translate(-33.025 -111.904)" fill="#111e61"/>
        <path id="Trazado_28702" data-name="Trazado 28702" d="M36.444,206.285a.962.962,0,0,0,.961.961h4.178a.962.962,0,0,0,.961-.961v-4.178a.962.962,0,0,0-.961-.961H37.405a.962.962,0,0,0-.961.961v4.178Zm1.408-3.731h3.285v3.284H37.852Z" transform="translate(-33.024 -185.107)" fill="#111e61"/>
        <path id="Trazado_28703" data-name="Trazado 28703" d="M433.438,56.262a.7.7,0,1,0,0-1.408H431.28a.7.7,0,1,0,0,1.408Z" transform="translate(-390.169 -52.543)" fill="#111e61"/>
        <path id="Trazado_28704" data-name="Trazado 28704" d="M423.01,178.894a.986.986,0,0,0,.985-.985v-9.9a.986.986,0,0,0-.985-.985h-2.646a.986.986,0,0,0-.985.985v9.9a.986.986,0,0,0,.985.985Zm-2.224-10.466h1.8v9.058h-1.8Z" transform="translate(-380.023 -154.183)" fill="#111e61"/>
        <path id="Trazado_28705" data-name="Trazado 28705" d="M236.8,236.447H234.15a.986.986,0,0,0-.985.985v3.388a.986.986,0,0,0,.985.985H236.8a.986.986,0,0,0,.985-.985v-3.388A.986.986,0,0,0,236.8,236.447Zm-.422,3.951h-1.8v-2.543h1.8Z" transform="translate(-211.284 -217.095)" fill="#111e61"/>
        <path id="Trazado_28706" data-name="Trazado 28706" d="M186.881,170.725h-.755a8.079,8.079,0,1,0,.767,8.674.986.986,0,0,0,.973-.985v-6.7A.986.986,0,0,0,186.881,170.725Zm-7.148,11.607a6.673,6.673,0,1,1,4.488-11.607.986.986,0,0,0-.971.985v6.7a.986.986,0,0,0,.985.985h1.019A6.668,6.668,0,0,1,179.733,182.332Zm6.726-4.341h-1.8v-5.859h1.8Z" transform="translate(-155.544 -154.689)" fill="#111e61"/>
        <path id="Trazado_28707" data-name="Trazado 28707" d="M46.274,30.231H15.766a.7.7,0,1,0,0,1.408H46.274A.366.366,0,0,1,46.64,32v3.04H9.11V31.639h3.371a.7.7,0,1,0,0-1.408H1.774A1.776,1.776,0,0,0,0,32V66.128A1.776,1.776,0,0,0,1.774,67.9h25.91a.7.7,0,1,0,0-1.408H1.774a.366.366,0,0,1-.366-.366V36.452H46.64V66.128a.366.366,0,0,1-.366.366H44.189l-6.4-6.4a1.644,1.644,0,0,0-1.883-.312l-2.292-2.292A11.319,11.319,0,0,0,34.9,54.941h2.267a.986.986,0,0,0,.985-.985V47.57a.7.7,0,0,0-1.408,0v5.963h-1.8V41.266h1.8v3.02a.7.7,0,0,0,1.408,0V40.844a.986.986,0,0,0-.985-.985H34.516a.986.986,0,0,0-.985.985v3.934A11.344,11.344,0,1,0,30.484,60.63L32.8,62.941a1.644,1.644,0,0,0,.349,1.8l1.75,1.75H30.968a.7.7,0,1,0,0,1.408H36.3l4.222,4.222a1.644,1.644,0,0,0,2.323,0L45.171,69.8a1.644,1.644,0,0,0,.305-1.9h.8a1.776,1.776,0,0,0,1.774-1.774V32a1.775,1.775,0,0,0-1.773-1.774ZM7.7,35.045H1.408V32a.366.366,0,0,1,.366-.366H7.7ZM24.189,61.136a9.935,9.935,0,1,1,9.341-13.318v6.138a.979.979,0,0,0,.082.393A9.952,9.952,0,0,1,24.189,61.136Zm7.422-1.369a11.44,11.44,0,0,0,1.144-1.144l2.094,2.094-1.144,1.144ZM44.176,68.8l-2.324,2.324a.235.235,0,0,1-.332,0l-7.38-7.38a.235.235,0,0,1,0-.332l2.324-2.324a.235.235,0,0,1,.332,0l7.38,7.38A.235.235,0,0,1,44.176,68.8Z" transform="translate(0 -30.231)" fill="#111e61"/>
      </g>
    </g>
  </g>
</svg>
